<?xml version="1.0" standalone="no"?>
<!DOCTYPE svg PUBLIC "-//W3C//DTD SVG 20010904//EN"
 "http://www.w3.org/TR/2001/REC-SVG-20010904/DTD/svg10.dtd">
<svg version="1.0" xmlns="http://www.w3.org/2000/svg"
 width="400.000000pt" height="400.000000pt" viewBox="0 0 400.000000 400.000000"
 preserveAspectRatio="xMidYMid meet">

<g transform="translate(0.000000,400.000000) scale(0.100000,-0.100000)"
fill="#000000" stroke="none">
<path d="M1610 3874 c-135 -39 -204 -78 -294 -165 l-81 -77 -60 26 c-48 21
-77 26 -145 26 -74 1 -94 -3 -148 -28 -120 -55 -199 -141 -246 -263 -25 -67
-32 -101 -61 -300 -18 -125 -44 -197 -91 -252 -61 -71 -140 -100 -218 -80 -26
6 -49 9 -52 7 -10 -11 9 -38 39 -57 76 -47 155 -35 240 34 103 84 141 174 171
408 9 65 21 137 27 160 31 119 125 229 227 267 53 20 156 27 166 12 11 -19
-27 -51 -77 -66 -71 -21 -128 -63 -182 -136 -56 -77 -82 -147 -106 -285 -43
-240 -77 -329 -171 -442 -187 -226 -232 -299 -269 -441 -24 -89 -20 -163 11
-266 28 -90 146 -264 165 -244 3 3 -2 36 -11 74 -19 84 -14 146 20 219 32 70
90 126 235 227 245 171 330 271 391 463 18 58 24 104 29 262 4 106 10 195 13
198 3 4 18 -25 33 -64 30 -79 76 -154 159 -256 41 -51 56 -78 56 -101 0 -54
-38 -183 -76 -255 -46 -88 -110 -147 -289 -269 -217 -147 -313 -255 -370 -417
-22 -60 -25 -86 -25 -211 0 -167 15 -233 121 -551 l61 -184 -22 -39 -22 -38
23 -68 c37 -113 75 -179 118 -207 30 -18 51 -46 87 -112 110 -205 185 -313
236 -339 54 -28 122 -15 250 48 194 95 427 260 853 604 272 219 319 249 400
255 31 3 40 0 38 -11 -1 -8 -14 -97 -29 -198 -27 -183 -27 -183 -7 -210 37
-50 70 -67 132 -67 72 0 107 21 120 72 9 32 52 303 77 476 6 45 10 49 53 72
61 31 68 40 81 110 13 70 13 62 10 230 -2 125 -12 185 -31 185 -16 0 -9 82 22
264 17 100 33 183 35 185 2 3 62 -3 132 -12 70 -9 155 -17 188 -17 56 0 62 2
96 38 49 50 64 84 82 181 34 181 13 284 -69 327 -29 16 -133 37 -385 78 -508
82 -502 82 -556 56 -80 -39 -115 -109 -135 -271 -12 -100 -7 -144 22 -201 32
-62 64 -77 238 -108 57 -10 107 -22 112 -27 4 -4 4 -26 -1 -48 -5 -22 -23
-121 -40 -220 -40 -238 -36 -222 -67 -230 -40 -10 -87 -47 -246 -196 -161
-153 -200 -181 -415 -303 -195 -111 -617 -320 -630 -312 -5 3 -22 44 -38 92
-27 85 -27 86 -9 120 21 40 16 119 -16 252 -12 46 -18 89 -16 97 3 7 32 21 64
30 71 21 820 192 986 225 47 9 57 15 57 32 0 38 -132 282 -216 401 -19 26 -34
52 -34 57 0 6 24 -2 52 -16 71 -36 175 -142 227 -232 37 -63 46 -73 64 -68 12
3 25 6 30 6 17 0 5 47 -30 112 -47 89 -158 205 -233 243 -30 15 -142 63 -249
107 -107 43 -205 85 -218 93 -26 18 -32 69 -10 99 12 16 16 16 82 0 58 -14 78
-14 114 -4 57 15 77 39 108 130 14 41 36 88 49 103 13 16 24 41 24 56 0 24 7
31 45 46 48 18 70 45 62 77 -4 13 10 40 41 81 94 124 140 272 122 396 -5 38
-19 94 -30 125 -25 66 -95 164 -140 196 -39 28 -137 69 -164 70 -10 0 -38 18
-62 39 -52 48 -159 104 -241 125 -96 25 -259 21 -363 -10z m367 -78 c73 -19
163 -63 163 -78 0 -21 -81 -66 -130 -72 -137 -18 -422 -26 -510 -15 -99 12
-140 23 -140 37 0 13 103 66 206 106 86 34 94 35 224 36 84 0 155 -5 187 -14z
m358 -182 c66 -30 127 -97 166 -179 26 -53 29 -71 29 -153 0 -78 -4 -105 -27
-160 -31 -80 -70 -145 -82 -137 -24 14 -21 60 9 136 18 48 30 97 30 126 0 121
-60 234 -153 293 -60 38 -71 52 -62 81 8 25 26 24 90 -7z m-185 -59 c-44 -156
-238 -321 -418 -356 -101 -19 -241 -6 -317 30 -102 47 -229 191 -197 223 9 9
17 9 26 3 170 -121 209 -135 361 -135 93 0 125 4 172 22 122 45 222 115 311
215 64 72 83 71 62 -2z m-136 26 c9 -13 -80 -84 -149 -119 -109 -55 -197 -76
-289 -68 -126 9 -177 28 -243 91 -48 45 -55 56 -43 65 10 8 82 9 230 5 173 -6
233 -4 305 9 163 28 181 30 189 17z m-858 -78 c-18 -34 -22 -8 -4 34 8 21 12
24 15 11 2 -9 -3 -29 -11 -45z m1111 -32 c51 -37 82 -80 99 -138 23 -76 18
-129 -17 -190 -28 -49 -31 -61 -25 -107 3 -29 15 -79 26 -111 11 -33 18 -65
16 -71 -2 -6 -21 -14 -41 -17 -51 -8 -65 -23 -65 -70 l0 -40 -75 6 c-45 3 -77
1 -81 -4 -10 -17 26 -48 67 -59 48 -13 54 -23 29 -45 -13 -12 -20 -31 -20 -56
0 -43 -19 -59 -69 -59 -78 0 -236 89 -353 199 -36 33 -71 61 -77 61 -28 0 -7
79 54 201 60 122 92 159 186 213 101 59 198 154 253 249 21 37 42 67 46 67 4
0 25 -13 47 -29z m-1217 -17 c0 -3 -18 -26 -40 -51 -76 -87 -108 -183 -125
-378 -9 -104 -40 -227 -78 -308 -35 -75 -76 -129 -240 -318 -103 -119 -143
-188 -174 -302 -11 -38 -23 -68 -28 -68 -32 0 -26 139 9 237 32 88 65 140 172
269 173 211 195 260 249 531 37 185 60 247 121 314 40 44 134 96 134 74z m40
-117 c0 -1 -8 -27 -19 -57 -15 -43 -20 -98 -26 -260 -7 -231 -17 -286 -75
-405 -51 -107 -114 -173 -256 -275 -66 -46 -138 -99 -161 -118 -84 -67 -35 10
112 177 127 145 163 195 205 286 46 98 66 176 80 320 18 187 48 282 103 320
20 14 37 19 37 12z m155 -87 c22 -23 63 -57 91 -76 44 -31 53 -42 58 -77 4
-22 20 -69 37 -103 29 -62 29 -63 12 -98 -9 -20 -22 -36 -29 -36 -24 0 -153
187 -180 262 -15 40 -43 144 -44 161 0 16 18 5 55 -33z m451 -153 c4 -4 -6
-38 -22 -75 -35 -78 -54 -86 -119 -49 -40 23 -85 86 -85 121 0 17 8 18 109 14
60 -2 113 -7 117 -11z m-90 -234 c-59 -188 -59 -327 -1 -460 25 -55 115 -153
141 -153 20 0 18 8 -20 64 -54 78 -78 163 -84 294 -3 80 -2 112 7 112 6 0 11
-5 11 -10 0 -18 83 -102 150 -151 l65 -48 0 -126 0 -125 48 -44 c26 -24 47
-52 47 -63 0 -10 -13 -35 -30 -55 -77 -93 -246 -88 -415 12 -65 39 -199 167
-210 200 -5 16 3 36 29 74 47 69 92 194 111 307 19 121 63 189 122 189 28 0
33 -3 29 -17z m1208 -223 c14 0 17 -6 13 -27 -3 -16 -17 -95 -31 -178 -36
-209 -35 -205 -55 -205 -18 0 -62 41 -79 76 -13 25 -1 147 22 233 18 64 61
115 91 107 11 -3 28 -6 39 -6z m159 -26 c13 -5 13 -13 0 -70 -16 -72 -13 -94
15 -94 28 0 40 19 53 81 7 30 15 58 19 62 4 4 78 -4 166 -18 199 -32 229 -38
227 -50 -62 -376 -71 -414 -95 -399 -5 3 -88 19 -185 34 -96 16 -177 31 -180
34 -3 2 -2 34 2 70 l7 66 37 0 c20 0 91 -9 159 -21 114 -19 124 -20 147 -5 14
9 25 25 25 35 0 23 -15 27 -159 41 -57 5 -134 17 -171 26 -89 22 -100 17 -100
-42 0 -51 -26 -150 -41 -160 -6 -3 -21 -3 -35 0 -22 6 -24 11 -20 39 41 254
58 351 63 363 5 14 39 19 66 8z m628 -106 c62 -35 70 -85 38 -258 -21 -114
-54 -148 -130 -135 -34 6 -39 10 -39 33 0 27 56 345 65 370 6 17 22 15 66 -10z
m-2157 -442 c128 -91 268 -129 384 -106 72 15 103 31 158 82 l45 41 30 -29
c58 -55 229 -348 229 -391 0 -17 -19 -24 -152 -56 -343 -82 -508 -118 -518
-112 -4 3 -11 17 -15 32 -10 40 -107 210 -196 343 -43 64 -118 159 -168 212
-50 53 -91 102 -91 109 1 8 20 29 43 46 l42 33 74 -80 c40 -45 101 -100 135
-124z m745 91 c18 -15 138 -187 184 -263 48 -80 97 -179 97 -197 0 -9 -17 -19
-40 -25 -48 -12 -38 -23 -126 143 -59 113 -149 251 -222 344 -23 29 -42 57
-42 61 0 9 125 -44 149 -63z m-1082 -49 c84 -72 184 -193 268 -323 73 -113
152 -255 160 -286 6 -23 3 -28 -26 -38 -68 -24 -72 -21 -139 107 -100 188
-241 385 -349 486 -17 17 -31 33 -31 37 0 8 60 49 72 49 4 0 24 -15 45 -32z
m1983 -32 c53 -16 52 8 8 -251 -16 -99 -35 -183 -42 -187 -6 -4 -32 -8 -58 -8
-46 0 -47 1 -43 28 3 15 19 104 35 197 17 94 33 185 36 203 6 37 4 36 64 18z
m-2082 -124 c130 -132 257 -328 340 -522 51 -118 71 -193 81 -292 l7 -78 -27
0 c-35 0 -40 7 -89 135 -58 153 -89 220 -132 287 -30 46 -43 58 -63 58 -41 0
-40 -25 3 -98 41 -67 72 -133 72 -152 0 -21 -28 -9 -125 55 -55 35 -105 65
-111 65 -6 0 -16 -11 -22 -25 -16 -35 -9 -41 261 -212 33 -21 89 -106 76 -116
-2 -2 -51 -18 -108 -36 -56 -18 -146 -55 -200 -82 -82 -42 -98 -47 -107 -34
-13 18 -104 321 -139 465 -42 175 -33 364 22 474 26 51 150 186 171 186 7 0
47 -35 90 -78z m2119 -426 c-2 -6 -30 -13 -63 -16 -68 -6 -84 -14 -84 -40 0
-30 39 -50 96 -50 35 0 54 -4 57 -14 8 -20 -2 -26 -44 -26 -58 0 -89 -15 -89
-43 0 -20 6 -25 38 -31 20 -3 50 -6 65 -6 22 0 28 -4 25 -17 -2 -13 -16 -19
-49 -23 -87 -10 -112 -70 -29 -70 10 0 31 -5 46 -10 54 -21 10 -37 -350 -131
-174 -45 -137 -22 -541 -343 -159 -127 -315 -250 -345 -272 -257 -190 -454
-305 -548 -320 -34 -5 -44 -2 -75 26 -20 17 -57 64 -81 103 -66 107 -149 284
-142 302 11 29 263 140 365 160 l33 7 -56 -68 c-91 -110 -118 -185 -70 -192
16 -2 32 12 67 61 85 118 122 144 461 312 484 240 599 313 824 521 85 79 175
153 201 166 35 17 70 23 151 28 116 6 143 3 137 -14z m-161 -568 c-4 -40 -11
-93 -16 -118 -5 -25 -14 -83 -21 -130 -6 -47 -16 -102 -21 -122 -8 -36 -10
-38 -51 -38 -68 0 -69 2 -52 121 17 123 43 279 50 297 4 10 93 58 114 61 2 1
0 -32 -3 -71z m-1550 -20 c22 -64 28 -127 13 -132 -8 -2 -50 -13 -94 -25 -89
-25 -251 -98 -338 -154 -32 -21 -62 -37 -67 -37 -12 0 -40 41 -40 60 0 8 36
36 84 62 93 53 115 73 98 90 -15 15 -75 -7 -144 -53 -31 -22 -60 -39 -63 -39
-3 0 -10 12 -16 26 -13 35 4 54 89 101 137 76 345 145 426 140 35 -2 40 -6 52
-39z"/>
<path d="M2080 3227 c-24 -8 -35 -18 -35 -32 0 -18 9 -21 70 -26 39 -3 89 -14
113 -24 38 -16 45 -16 58 -3 50 50 -114 118 -206 85z"/>
<path d="M2056 3101 c-30 -47 138 -96 178 -52 17 19 17 20 -15 37 -41 21 -153
31 -163 15z"/>
<path d="M2860 711 c0 -15 6 -21 21 -21 25 0 22 33 -4 38 -12 2 -17 -3 -17
-17z"/>
</g>
</svg>
